<svg width="770" height="214" viewBox="0 0 770 214" fill="none" xmlns="http://www.w3.org/2000/svg">
<g clip-path="url(#clip0_162_387)">
<g clip-path="url(#clip1_162_387)">
<path d="M607.948 153.906H602.056C600.869 153.906 599.907 154.868 599.907 156.054V161.947C599.907 163.134 600.869 164.095 602.056 164.095H607.948C609.135 164.095 610.097 163.134 610.097 161.947V156.054C610.097 154.868 609.135 153.906 607.948 153.906ZM591.313 120.637H585.421C584.234 120.637 583.272 121.599 583.272 122.785V128.678C583.272 129.864 584.234 130.826 585.421 130.826H591.313C592.5 130.826 593.462 129.864 593.462 128.678V122.785C593.462 121.599 592.5 120.637 591.313 120.637ZM596.689 197.365H607.948C609.135 197.365 610.097 196.403 610.097 195.216V172.689C610.097 171.503 609.135 170.541 607.948 170.541H585.421C584.234 170.541 583.272 171.503 583.272 172.689V195.216C583.272 196.403 584.234 197.365 585.421 197.365H596.685L596.689 197.365ZM624.583 187.175H618.69C617.504 187.175 616.542 188.137 616.542 189.324V195.216C616.542 196.403 617.504 197.365 618.69 197.365H624.583C625.77 197.365 626.732 196.403 626.732 195.216V189.324C626.732 188.137 625.77 187.175 624.583 187.175ZM624.583 147.461C625.77 147.461 626.732 146.499 626.732 145.312V122.785C626.732 121.599 625.77 120.637 624.583 120.637H602.056C600.869 120.637 599.907 121.599 599.907 122.785V145.313C599.907 146.499 600.869 147.461 602.056 147.461H624.583V147.461ZM591.313 164.095C592.5 164.095 593.462 163.134 593.462 161.947V139.42C593.462 138.233 592.5 137.271 591.313 137.271H568.786C567.6 137.271 566.638 138.233 566.638 139.42V161.947C566.638 163.133 567.6 164.095 568.786 164.095H591.313V164.095ZM651.96 180.73H657.851C659.037 180.73 659.999 179.768 659.999 178.582V172.689C659.999 171.503 659.037 170.541 657.851 170.541H651.96C650.774 170.541 649.812 171.503 649.812 172.689V178.582C649.812 179.768 650.774 180.73 651.96 180.73ZM568.786 180.73H574.679C575.865 180.73 576.827 179.768 576.827 178.582V172.689C576.827 171.503 575.865 170.541 574.679 170.541H568.786C567.6 170.541 566.638 171.503 566.638 172.689V178.582C566.638 179.768 567.6 180.73 568.786 180.73ZM651.96 137.272C650.774 137.272 649.812 138.233 649.812 139.42V161.947C649.812 163.134 650.774 164.096 651.96 164.096H657.851C659.037 164.096 659.999 163.134 659.999 161.947V139.42C659.999 138.233 659.037 137.272 657.851 137.272H651.96ZM633.177 128.678C633.177 129.864 634.139 130.826 635.325 130.826H657.851C659.037 130.826 659.999 129.864 659.999 128.678V106.148C659.999 104.962 659.037 104 657.851 104H635.325C634.139 104 633.177 104.962 633.177 106.148V128.678ZM641.218 180.73C642.405 180.73 643.366 179.768 643.366 178.582V156.054C643.366 154.868 642.405 153.906 641.218 153.906H618.69C617.504 153.906 616.542 154.868 616.542 156.054V178.582C616.542 179.768 617.504 180.73 618.69 180.73H641.218ZM558.042 137.272H552.149C550.962 137.272 550 138.233 550 139.42V145.313C550 146.499 550.962 147.461 552.149 147.461H558.042C559.229 147.461 560.191 146.499 560.191 145.313V139.42C560.191 138.233 559.229 137.272 558.042 137.272ZM641.218 137.272H635.325C634.139 137.272 633.177 138.233 633.177 139.42V145.313C633.177 146.499 634.139 147.461 635.325 147.461H641.218C642.405 147.461 643.366 146.499 643.366 145.313V139.42C643.366 138.233 642.404 137.272 641.218 137.272ZM583.272 205.959V211.852C583.272 213.038 584.234 214 585.421 214H591.314C592.5 214 593.462 213.038 593.462 211.852V205.959C593.462 204.772 592.5 203.81 591.314 203.81H585.421C584.234 203.81 583.272 204.772 583.272 205.959ZM659.999 189.324C659.999 188.137 659.037 187.175 657.851 187.175H635.325C634.139 187.175 633.177 188.137 633.177 189.324V211.852C633.177 213.038 634.139 214 635.325 214H657.851C659.037 214 659.999 213.038 659.999 211.852V189.324ZM599.907 205.959V211.852C599.907 213.038 600.869 214 602.056 214H624.583C625.77 214 626.732 213.038 626.732 211.852V205.959C626.732 204.772 625.77 203.811 624.583 203.811H602.056C600.869 203.811 599.907 204.772 599.907 205.959ZM550 189.325V211.852C550 213.038 550.962 214 552.149 214H574.677C575.863 214 576.825 213.038 576.825 211.852V189.325C576.825 188.138 575.863 187.176 574.677 187.176H552.149C550.963 187.176 550 188.138 550 189.325ZM558.041 153.906H552.149C550.962 153.906 550 154.868 550 156.054V178.582C550 179.768 550.962 180.73 552.149 180.73H558.041C559.228 180.73 560.19 179.768 560.19 178.582V156.054C560.19 154.868 559.228 153.906 558.041 153.906ZM596.685 114.192H607.948C609.135 114.192 610.097 113.23 610.097 112.043V106.148C610.097 104.962 609.135 104 607.948 104H585.421C584.234 104 583.272 104.962 583.272 106.148V112.043C583.272 113.23 584.234 114.192 585.421 114.192H596.685ZM626.732 112.043V106.148C626.732 104.962 625.77 104 624.583 104H618.69C617.504 104 616.542 104.962 616.542 106.148V112.043C616.542 113.23 617.504 114.192 618.69 114.192H624.583C625.77 114.192 626.732 113.23 626.732 112.043ZM550 128.678C550 129.864 550.962 130.826 552.149 130.826H574.677C575.863 130.826 576.825 129.864 576.825 128.678V106.148C576.825 104.962 575.863 104 574.677 104H552.149C550.962 104 550 104.962 550 106.148V128.678Z" fill="#CBCCBE"/>
</g>
<g clip-path="url(#clip2_162_387)">
<rect width="104" height="110" transform="matrix(0 1 -1 0 770 0)" fill="#CBCCBE"/>
<path d="M873.751 -104H770.014C708.397 -104 658.653 -56.1412 660.028 2.47097C661.403 57.7744 709.272 102.915 767.764 103.979C799.01 104.57 827.382 92.7527 847.754 73.491C867.627 54.702 880 28.7047 880 -0.0105896V-98.0915C880 -101.282 877.125 -104 873.751 -104Z" fill="#93A577"/>
</g>
<path d="M441.907 22.4376C442.156 22.439 442.404 22.3938 442.635 22.3046C442.866 22.2153 443.076 22.0839 443.253 21.9177L463.177 3.07599C463.354 2.90884 463.494 2.7104 463.59 2.492C463.686 2.27361 463.735 2.03953 463.735 1.80314C463.735 1.56675 463.686 1.33267 463.59 1.11428C463.494 0.895883 463.354 0.697444 463.177 0.530291C463 0.363138 462.791 0.230545 462.56 0.140083C462.329 0.0496201 462.081 0.0030595 461.831 0.0030595C461.326 0.0030595 460.842 0.19271 460.485 0.530291L440.561 19.372C440.383 19.5387 440.242 19.737 440.146 19.9554C440.05 20.1739 440 20.4082 440 20.6449C440 20.8816 440.05 21.1159 440.146 21.3343C440.242 21.5528 440.383 21.7511 440.561 21.9177C440.738 22.0839 440.948 22.2153 441.179 22.3046C441.41 22.3938 441.657 22.439 441.907 22.4376ZM441.907 42.8391C442.156 42.8404 442.404 42.7952 442.635 42.706C442.866 42.6168 443.076 42.4853 443.253 42.3192L484.751 3.07599C484.928 2.90884 485.068 2.7104 485.164 2.492C485.259 2.27361 485.309 2.03953 485.309 1.80314C485.309 1.56675 485.259 1.33267 485.164 1.11428C485.068 0.895883 484.928 0.697444 484.751 0.530291C484.574 0.363138 484.364 0.230545 484.133 0.140083C483.903 0.0496201 483.655 0.0030595 483.405 0.0030595C483.155 0.0030595 482.908 0.0496201 482.677 0.140083C482.446 0.230545 482.236 0.363138 482.059 0.530291L440.561 39.7735C440.383 39.9401 440.242 40.1384 440.146 40.3569C440.05 40.5753 440 40.8097 440 41.0463C440 41.283 440.05 41.5173 440.146 41.7358C440.242 41.9542 440.383 42.1525 440.561 42.3192C440.738 42.4853 440.948 42.6168 441.179 42.706C441.41 42.7952 441.657 42.8404 441.907 42.8391ZM441.907 63.2047C442.4 63.2267 442.883 63.0659 443.253 62.7565L506.363 3.07599C506.72 2.73841 506.92 2.28055 506.92 1.80314C506.92 1.32573 506.72 0.867871 506.363 0.530291C506.006 0.19271 505.522 0.0030595 505.017 0.0030595C504.512 0.0030595 504.028 0.19271 503.671 0.530291L440.561 60.1391C440.383 60.3057 440.242 60.504 440.146 60.7225C440.05 60.9409 440 61.1752 440 61.4119C440 61.6486 440.05 61.8829 440.146 62.1014C440.242 62.3198 440.383 62.5181 440.561 62.6848C440.738 62.8509 440.948 62.9824 441.179 63.0716C441.41 63.1608 441.657 63.206 441.907 63.2047ZM441.907 83.6061C442.156 83.6075 442.404 83.5622 442.635 83.473C442.866 83.3838 443.076 83.2524 443.253 83.0862L527.861 3.07599C528.037 2.90884 528.178 2.7104 528.273 2.492C528.369 2.27361 528.418 2.03953 528.418 1.80314C528.418 1.56675 528.369 1.33267 528.273 1.11428C528.178 0.895883 528.037 0.697444 527.861 0.530291C527.684 0.363138 527.474 0.230545 527.243 0.140083C527.012 0.0496201 526.765 0.00305949 526.515 0.0030595C526.265 0.0030595 526.017 0.0496201 525.786 0.140083C525.555 0.230545 525.345 0.363138 525.169 0.530291L440.561 80.5405C440.383 80.7072 440.242 80.9054 440.146 81.1239C440.05 81.3424 440 81.5767 440 81.8134C440 82.05 440.05 82.2843 440.146 82.5028C440.242 82.7213 440.383 82.9195 440.561 83.0862C440.738 83.2524 440.948 83.3838 441.179 83.473C441.41 83.5622 441.657 83.6075 441.907 83.6061ZM549.415 0.530291C549.239 0.36226 549.03 0.22889 548.799 0.137874C548.568 0.0468592 548.32 0 548.069 0C547.819 0 547.571 0.0468592 547.34 0.137874C547.109 0.22889 546.9 0.36226 546.723 0.530291L440.561 100.924C440.383 101.091 440.242 101.289 440.146 101.507C440.05 101.726 440 101.96 440 102.197C440 102.434 440.05 102.668 440.146 102.886C440.242 103.105 440.383 103.303 440.561 103.47C440.737 103.638 440.947 103.771 441.178 103.862C441.409 103.953 441.656 104 441.907 104C442.157 104 442.405 103.953 442.636 103.862C442.867 103.771 443.077 103.638 443.253 103.47L549.415 3.07599C549.593 2.90933 549.734 2.71105 549.83 2.49259C549.927 2.27413 549.976 2.0398 549.976 1.80314C549.976 1.56648 549.927 1.33215 549.83 1.11369C549.734 0.89523 549.593 0.69695 549.415 0.530291ZM546.723 20.9138L462.116 100.924C461.938 101.091 461.797 101.289 461.701 101.507C461.604 101.726 461.555 101.96 461.555 102.197C461.555 102.434 461.604 102.668 461.701 102.886C461.797 103.105 461.938 103.303 462.116 103.47C462.292 103.638 462.501 103.771 462.733 103.862C462.964 103.953 463.211 104 463.462 104C463.712 104 463.96 103.953 464.191 103.862C464.422 103.771 464.631 103.638 464.808 103.47L549.415 23.4595C549.772 23.1219 549.973 22.6641 549.973 22.1866C549.973 21.7092 549.772 21.2514 549.415 20.9138C549.058 20.5762 548.574 20.3866 548.069 20.3866C547.565 20.3866 547.08 20.5762 546.723 20.9138ZM546.723 41.2435L483.614 100.924C483.436 101.091 483.295 101.289 483.199 101.507C483.102 101.726 483.053 101.96 483.053 102.197C483.053 102.434 483.102 102.668 483.199 102.886C483.295 103.105 483.436 103.303 483.614 103.47C483.79 103.638 483.999 103.771 484.23 103.862C484.461 103.953 484.709 104 484.96 104C485.21 104 485.458 103.953 485.689 103.862C485.92 103.771 486.129 103.638 486.306 103.47L549.415 43.8609C549.783 43.5234 549.993 43.0617 550 42.5776C550.007 42.0935 549.81 41.6265 549.453 41.2794C549.096 40.9323 548.608 40.7335 548.096 40.7268C547.584 40.7201 547.091 40.9059 546.723 41.2435ZM546.723 61.6808L505.225 100.924C505.048 101.091 504.907 101.289 504.81 101.507C504.714 101.726 504.664 101.96 504.664 102.197C504.664 102.434 504.714 102.668 504.81 102.886C504.907 103.105 505.048 103.303 505.225 103.47C505.401 103.638 505.611 103.771 505.842 103.862C506.073 103.953 506.321 104 506.571 104C506.821 104 507.069 103.953 507.3 103.862C507.531 103.771 507.741 103.638 507.917 103.47L549.415 64.2265C549.772 63.8889 549.973 63.4311 549.973 62.9537C549.973 62.4763 549.772 62.0184 549.415 61.6808C549.058 61.3432 548.574 61.1536 548.069 61.1536C547.565 61.1536 547.08 61.3432 546.723 61.6808ZM546.723 82.0823L526.799 100.924C526.621 101.091 526.48 101.289 526.384 101.507C526.288 101.726 526.238 101.96 526.238 102.197C526.238 102.434 526.288 102.668 526.384 102.886C526.48 103.105 526.621 103.303 526.799 103.47C526.975 103.638 527.185 103.771 527.416 103.862C527.647 103.953 527.895 104 528.145 104C528.395 104 528.643 103.953 528.874 103.862C529.105 103.771 529.315 103.638 529.491 103.47L549.415 84.628C549.772 84.2904 549.973 83.8325 549.973 83.3551C549.973 82.8777 549.772 82.4198 549.415 82.0823C549.058 81.7447 548.574 81.555 548.069 81.555C547.565 81.555 547.08 81.7447 546.723 82.0823Z" fill="#B8CF94"/>
<path fill-rule="evenodd" clip-rule="evenodd" d="M330 0H220V104H330V0ZM275.227 88.9587C296.691 88.9587 314.091 72.5079 314.091 52.2149C314.091 31.9218 296.691 15.4711 275.227 15.4711C253.764 15.4711 236.364 31.9218 236.364 52.2149C236.364 72.5079 253.764 88.9587 275.227 88.9587Z" fill="#93A577"/>
<path d="M440 214V104H330L440 214Z" fill="#CBCCBE" fill-opacity="0.85098"/>
<path fill-rule="evenodd" clip-rule="evenodd" d="M110 214C110 153.249 159.249 104 220 104V324L220 214H110Z" fill="#CBCCBE"/>
<path fill-rule="evenodd" clip-rule="evenodd" d="M110 104C49.2492 104 0 57.4371 0 0H110V104Z" fill="#CBCCBE"/>
</g>
<defs>
<clipPath id="clip0_162_387">
<rect width="770" height="214" fill="white"/>
</clipPath>
<clipPath id="clip1_162_387">
<rect width="110" height="110" fill="white" transform="translate(550 104)"/>
</clipPath>
<clipPath id="clip2_162_387">
<rect width="104" height="110" fill="white" transform="matrix(0 1 -1 0 770 0)"/>
</clipPath>
</defs>
</svg>
