<svg width="800" height="800" viewBox="0 0 800 800" fill="none" xmlns="http://www.w3.org/2000/svg">
<g clip-path="url(#clip0_163_31)">
<path fill-rule="evenodd" clip-rule="evenodd" d="M546.615 228.826C546.536 212.71 559.055 198.718 587.077 198.163C615.099 197.608 633.797 215.16 630.456 228.752C626.088 246.485 595.642 251.472 596.136 270.171C596.211 273.018 577.675 272.76 577.675 269.914C577.248 251.28 614.226 242.277 614.784 228.405C615.274 216.245 605.344 209.651 587.229 209.651C574.647 209.651 564.071 216.133 563.144 228.68C562.984 231.333 546.627 231.482 546.615 228.826Z" fill="#E1B100"/>
<path fill-rule="evenodd" clip-rule="evenodd" d="M586.803 279.013C593.865 279.013 599.603 282.808 599.603 287.493C599.603 292.178 593.87 295.973 586.803 295.973C579.736 295.973 574.003 292.176 574.003 287.493C574.003 282.81 579.736 279.013 586.803 279.013Z" fill="#E1B100"/>
<path d="M384.44 297.178C387.853 324.776 384.347 351.435 378.787 366.181C374.05 362.326 369.056 358.798 363.84 355.621C366.581 406.264 424.114 447.358 436.32 445.827C450.299 444.096 475.36 398.65 463.36 355.379C454.859 360.011 444.651 366.176 444.651 366.176L448.021 338.632C448.021 338.632 485.506 340.685 499.061 313.899C512.616 287.114 510.112 205.125 510.112 205.125L439.219 204.485L429.779 175.365L423.04 204.712C409.808 204.568 396.619 206.237 383.84 209.672L383.651 263.317C355.818 251.306 348.615 298.125 384.44 297.178Z" fill="#FFBF9B"/>
<path d="M448.016 338.637C434.47 338.574 421.251 334.467 410.054 326.842C412.081 331.482 416.214 333.355 421.734 339.109C428.149 345.758 436.134 350.686 444.953 353.438L448.016 338.637Z" fill="#F08855"/>
<path d="M22.832 481.288C31.5744 488.008 54.6608 509.813 54.6608 509.813C59.0528 523.792 69.1648 526.491 79.8816 522.664C87.1744 533.824 92.5728 535.557 110.219 531.568C113.6 536.766 118.438 541.12 129.44 539.102C137.136 537.693 169.368 515.816 169.368 515.816C169.368 515.816 172.309 522.141 177.264 531.246C213.162 531.851 228.794 492.448 220.898 461.827C218.48 458.645 216.142 455.542 214.21 453.005C199.061 432.941 186.974 428.952 173.034 430.765C158.248 412.835 136.934 418.355 131.616 417.752C122.632 416.664 107.846 408.002 93.8656 395.914C79.8848 383.826 67.4352 404.053 78.1856 419.403C84.512 428.469 101.635 438.782 100.869 445.027C100.144 451.267 72.9888 472.142 72.9888 472.142C67.792 461.142 52.6832 455.704 46.3168 465.091C27.304 452.44 4.29918 467.066 22.832 481.288Z" fill="#FFBF9B"/>
<path d="M54.7565 511.36C54.5412 511.358 54.3317 511.29 54.1591 511.16C53.9863 511.032 53.8592 510.851 53.7965 510.645C53.3741 509.256 52.9261 507.802 52.4621 506.299C47.8829 491.461 42.1853 472.994 45.1805 465.072C45.2797 464.829 45.4703 464.634 45.7112 464.528C45.9524 464.424 46.225 464.416 46.4709 464.51C46.7169 464.603 46.9165 464.789 47.0277 465.027C47.1388 465.266 47.1522 465.538 47.0653 465.786C44.3133 473.059 50.1357 491.928 54.3869 505.706C54.8509 507.211 55.3005 508.667 55.7229 510.059C55.7617 510.186 55.7749 510.318 55.7623 510.45C55.7495 510.582 55.7108 510.71 55.6485 510.827C55.5863 510.942 55.5015 511.046 55.3993 511.13C55.297 511.214 55.1791 511.277 55.0525 511.315C54.9565 511.344 54.8569 511.36 54.7565 511.36Z" fill="#29263B"/>
<path d="M177.261 531.246C190.274 555.138 217.349 598.286 242.61 596.958C277.461 595.104 305.582 529.758 305.582 529.758L311.867 662.915C374.678 687.21 441.84 687.491 513.637 662.632C512.387 615.011 514.885 568.88 522.661 524.923C522.661 524.923 542.403 585.563 578.181 586.123C604.893 586.526 655.013 525.568 679.429 493.579C671.693 470.413 658.638 451.597 639.018 438.906C620.002 453.813 587.69 477.987 587.69 477.987C587.69 477.987 545.102 348.696 517.584 341.92C500.304 337.65 477.744 347.48 463.355 355.378C475.355 398.648 450.301 444.094 436.315 445.826C424.107 447.357 366.574 406.262 363.835 355.619C353.885 349.454 339.984 342.403 325.32 339.826C317.574 338.326 309.6 338.464 301.91 340.229C268.754 348.366 234.024 479.186 234.024 479.186C234.024 479.186 227.296 470.242 220.89 461.821C228.79 492.448 213.158 531.851 177.261 531.246Z" fill="#FF6B55"/>
<path d="M110.16 532.539C109.973 532.539 109.789 532.486 109.63 532.389C109.471 532.291 109.342 532.15 109.258 531.982C108.631 530.726 106.295 527.115 103.338 522.542C97.8641 514.08 89.6001 501.291 83.9217 490.72C82.0401 487.214 83.3889 483.186 87.3569 480.458C93.5617 476.192 104.024 476.138 111.197 484.448C116.386 490.922 121.162 497.717 125.498 504.79C130.831 502.84 134.411 494.365 138.192 485.413C140.455 479.478 143.303 473.784 146.693 468.413C146.767 468.299 146.862 468.203 146.974 468.126C147.086 468.051 147.212 468 147.344 467.973C147.477 467.947 147.613 467.949 147.745 467.976C147.877 468.005 148.002 468.058 148.113 468.134C148.224 468.213 148.318 468.31 148.39 468.426C148.462 468.539 148.511 468.667 148.532 468.8C148.554 468.933 148.549 469.069 148.517 469.2C148.486 469.331 148.428 469.454 148.347 469.563C145.04 474.824 142.26 480.397 140.048 486.203C135.907 496 132 505.28 125.299 506.957C125.092 507.01 124.872 506.995 124.674 506.914C124.475 506.834 124.308 506.691 124.197 506.507C119.781 499.304 114.932 492.374 109.675 485.76C103.266 478.338 93.9793 478.341 88.4993 482.11C86.0593 483.787 84.0417 486.678 85.6961 489.762C91.3297 500.259 99.5729 513.008 105.029 521.442C108.136 526.242 110.381 529.718 111.059 531.074C111.137 531.227 111.174 531.397 111.166 531.57C111.159 531.741 111.108 531.907 111.017 532.054C110.927 532.2 110.801 532.32 110.651 532.405C110.501 532.488 110.332 532.531 110.16 532.531V532.539Z" fill="#29263B"/>
<path d="M79.9427 523.715C79.7644 523.715 79.5894 523.669 79.4356 523.579C79.2817 523.49 79.1547 523.36 79.0675 523.205L77.6771 520.754C73.2307 512.902 67.1395 502.152 60.8771 492.283C57.8707 487.549 58.6371 482.747 62.9155 479.435C69.1299 474.635 80.9267 474.456 87.4147 481.411C87.5048 481.507 87.575 481.621 87.6212 481.746C87.6675 481.869 87.6889 482.002 87.6841 482.133C87.6795 482.266 87.6488 482.395 87.5939 482.515C87.539 482.635 87.4609 482.744 87.3643 482.834C87.2675 482.925 87.1539 482.995 87.03 483.042C86.906 483.086 86.7744 483.109 86.6422 483.104C86.51 483.099 86.3801 483.069 86.2598 483.014C86.1395 482.958 86.0312 482.88 85.9411 482.784C80.1699 476.597 69.6739 476.754 64.1475 481.024C62.1363 482.578 59.2579 485.968 62.5763 491.197C68.8707 501.107 74.9747 511.885 79.4323 519.755L80.8211 522.205C80.8865 522.32 80.9288 522.446 80.9451 522.578C80.9616 522.709 80.9518 522.842 80.9166 522.97C80.8814 523.098 80.8214 523.218 80.7398 523.322C80.6584 523.426 80.5571 523.512 80.4419 523.578C80.2905 523.667 80.1184 523.715 79.9427 523.715Z" fill="#29263B"/>
<path d="M159.829 437.57C159.623 437.57 159.422 437.507 159.253 437.39C159.084 437.272 158.955 437.106 158.883 436.912C158.812 436.72 158.801 436.509 158.853 436.31C158.905 436.11 159.017 435.933 159.173 435.798C163.134 432.739 167.774 430.68 172.701 429.794C172.958 429.742 173.227 429.794 173.446 429.938C173.667 430.082 173.822 430.306 173.88 430.562C173.939 430.818 173.893 431.086 173.755 431.31C173.618 431.534 173.398 431.696 173.142 431.76C168.538 432.576 164.197 434.486 160.483 437.328C160.301 437.485 160.069 437.57 159.829 437.57Z" fill="#29263B"/>
<path d="M522.586 526.106C522.515 526.106 522.443 526.099 522.374 526.083C522.245 526.056 522.122 526.003 522.013 525.928C521.904 525.853 521.811 525.757 521.739 525.646C521.667 525.536 521.618 525.411 521.594 525.282C521.57 525.15 521.573 525.018 521.6 524.888C521.691 524.461 530.683 482.019 529.12 469.451C527.544 456.822 513.414 416.995 513.272 416.594C513.189 416.342 513.206 416.07 513.322 415.832C513.437 415.595 513.642 415.413 513.89 415.323C514.139 415.235 514.413 415.248 514.653 415.36C514.891 415.47 515.078 415.672 515.171 415.918C515.755 417.565 529.515 456.355 531.118 469.198C532.73 482.104 523.949 523.549 523.574 525.307C523.526 525.533 523.402 525.736 523.222 525.882C523.042 526.027 522.818 526.106 522.586 526.106Z" fill="#29263B"/>
<path d="M305.408 531.066C305.259 531.066 305.111 531.032 304.976 530.966C304.856 530.91 304.749 530.83 304.661 530.733C304.571 530.634 304.503 530.52 304.458 530.395C304.413 530.27 304.394 530.138 304.4 530.005C304.407 529.874 304.44 529.744 304.496 529.624L332.848 470.146C332.903 470.022 332.983 469.912 333.08 469.819C333.178 469.728 333.295 469.656 333.419 469.61C333.546 469.563 333.68 469.542 333.815 469.549C333.949 469.555 334.082 469.587 334.203 469.646C334.325 469.704 334.434 469.786 334.522 469.886C334.611 469.987 334.68 470.104 334.723 470.232C334.767 470.358 334.784 470.493 334.775 470.627C334.765 470.762 334.728 470.893 334.667 471.013L306.315 530.491C306.234 530.662 306.106 530.808 305.944 530.909C305.784 531.011 305.599 531.066 305.408 531.066Z" fill="#29263B"/>
<path d="M169.373 516.834C169.155 516.834 168.944 516.763 168.77 516.632C168.597 516.502 168.469 516.318 168.408 516.11C168.347 515.901 168.354 515.678 168.431 515.475C168.506 515.27 168.645 515.098 168.827 514.979L185.6 504.206C185.826 504.062 186.098 504.013 186.359 504.07C186.619 504.126 186.847 504.285 186.992 504.51C187.136 504.734 187.184 505.006 187.128 505.269C187.071 505.53 186.914 505.757 186.688 505.901L169.92 516.675C169.757 516.779 169.567 516.834 169.373 516.834Z" fill="black"/>
<path d="M380.839 286.525C380.623 286.525 380.415 286.451 380.247 286.317C380.079 286.182 379.962 285.994 379.914 285.784C378.557 279.747 375.362 276.062 369.861 274.187C369.623 274.106 369.427 273.933 369.317 273.707C369.207 273.482 369.189 273.222 369.271 272.984C369.352 272.746 369.525 272.55 369.751 272.44C369.976 272.33 370.235 272.312 370.474 272.394C373.37 273.304 375.959 274.997 377.951 277.286C379.944 279.578 381.264 282.374 381.765 285.368C381.819 285.613 381.775 285.87 381.64 286.083C381.506 286.296 381.291 286.446 381.047 286.501C380.978 286.517 380.909 286.525 380.839 286.525Z" fill="#29263B"/>
<path d="M325.325 339.84C339.989 342.418 353.889 349.469 363.84 355.634C369.056 358.811 374.05 362.339 378.787 366.194C384.347 351.448 387.853 324.789 384.44 297.19C348.614 298.138 355.817 251.318 383.64 263.336L383.829 209.691C396.608 206.256 409.797 204.586 423.029 204.731L429.776 175.389L439.216 204.509L510.109 205.149L528.458 204.883C528.458 204.883 528.762 165.797 509.01 145.554C477.81 113.554 389.554 108.894 361.272 139.109C336.403 155.866 331.55 182.44 330.374 195.443C328.673 213.92 325.325 339.84 325.325 339.84Z" fill="#2E5DE6"/>
<path d="M470.755 296.563C470.528 296.563 470.309 296.483 470.136 296.334C469.963 296.187 469.85 295.982 469.816 295.757C469.783 295.533 469.831 295.304 469.951 295.112C470.072 294.92 470.258 294.778 470.475 294.71C474.367 293.502 480.69 290.645 481.091 288.118C481.522 285.398 476.275 273.878 472.867 267.267C472.805 267.157 472.767 267.034 472.754 266.907C472.739 266.782 472.752 266.654 472.789 266.533C472.826 266.411 472.887 266.298 472.967 266.202C473.048 266.104 473.149 266.022 473.261 265.965C473.375 265.907 473.498 265.872 473.624 265.862C473.751 265.853 473.877 265.869 473.999 265.909C474.119 265.95 474.229 266.014 474.323 266.099C474.419 266.182 474.496 266.285 474.551 266.4C475.483 268.206 483.634 284.179 482.963 288.416C482.246 292.922 472.181 296.166 471.035 296.522C470.944 296.549 470.85 296.563 470.755 296.563Z" fill="#29263B"/>
<path d="M431.978 317.213C431.781 317.213 431.589 317.152 431.427 317.038C431.267 316.925 431.146 316.763 431.082 316.578C431.016 316.392 431.011 316.19 431.066 316.002C431.12 315.813 431.234 315.645 431.387 315.523C434.165 313.205 437.483 311.626 441.034 310.934C444.586 310.243 448.254 310.462 451.698 311.571C451.931 311.646 452.128 311.808 452.245 312.024C452.362 312.24 452.39 312.493 452.325 312.73C452.259 312.966 452.104 313.168 451.893 313.293C451.68 313.418 451.429 313.456 451.19 313.398C448.034 312.378 444.67 312.174 441.413 312.805C438.157 313.437 435.114 314.883 432.566 317.008C432.398 317.141 432.192 317.213 431.978 317.213Z" fill="#29263B"/>
<path d="M413.562 229.651C413.16 229.651 412.766 229.544 412.421 229.342C412.074 229.141 411.786 228.85 411.587 228.502C411.389 228.154 411.286 227.758 411.29 227.357C411.293 226.957 411.402 226.563 411.605 226.218C416.443 218.035 423.539 215.018 432.696 217.269C432.989 217.336 433.267 217.462 433.512 217.638C433.755 217.814 433.963 218.037 434.122 218.293C434.278 218.55 434.384 218.835 434.43 219.133C434.477 219.43 434.464 219.734 434.394 220.027C434.322 220.32 434.192 220.595 434.013 220.837C433.834 221.08 433.608 221.285 433.35 221.438C433.091 221.594 432.805 221.694 432.507 221.738C432.208 221.781 431.904 221.763 431.613 221.688C424.437 219.928 419.323 222.104 415.522 228.533C415.32 228.874 415.034 229.157 414.69 229.352C414.346 229.549 413.957 229.651 413.562 229.651Z" fill="#29263B"/>
<path d="M501.866 225.378C501.469 225.378 501.08 225.274 500.736 225.078C500.394 224.882 500.107 224.598 499.906 224.258C497.366 219.966 494.024 218.803 489.082 220.49C488.798 220.586 488.499 220.626 488.202 220.606C487.904 220.587 487.613 220.509 487.344 220.378C487.077 220.246 486.837 220.062 486.64 219.838C486.443 219.614 486.291 219.354 486.195 219.07C486.099 218.787 486.059 218.488 486.078 218.19C486.098 217.893 486.174 217.602 486.307 217.333C486.438 217.066 486.622 216.826 486.846 216.629C487.07 216.432 487.331 216.28 487.614 216.184C494.586 213.814 500.186 215.802 503.821 221.944C504.026 222.29 504.134 222.683 504.139 223.083C504.142 223.485 504.04 223.88 503.842 224.229C503.642 224.578 503.355 224.867 503.008 225.069C502.661 225.272 502.267 225.378 501.866 225.378Z" fill="#29263B"/>
<path fill-rule="evenodd" clip-rule="evenodd" d="M432.438 236.914C429.197 236.914 426.563 241.733 426.563 247.666C426.563 253.598 429.197 258.419 432.438 258.419C435.68 258.419 438.313 253.602 438.313 247.666C438.313 241.73 435.685 236.914 432.438 236.914Z" fill="#29263B"/>
<path fill-rule="evenodd" clip-rule="evenodd" d="M489.693 235.166C486.704 235.166 484.278 239.605 484.278 245.075C484.278 250.546 486.704 254.986 489.693 254.986C492.682 254.986 495.106 250.542 495.106 245.075C495.106 239.608 492.68 235.166 489.693 235.166Z" fill="#29263B"/>
<path d="M732.568 459.531C735.554 463.122 738.948 466.354 742.68 469.16C747.999 473.229 760.087 458.966 770.804 458.28C772.772 458.168 774.74 458.498 776.564 459.248C781.044 454.333 781.397 443.656 770.6 442.366V442.326C770.12 442.286 769.64 442.245 769.109 442.245C755.613 441.76 740.384 456.8 732.568 459.531Z" fill="#FFBF9B"/>
<path d="M756.178 430.362C757.266 415.011 718.508 428.387 713.754 429.722C717.68 434.197 720.938 439.218 723.423 444.629C729.104 442.413 737.927 437.336 750.698 432.018C752.455 431.267 754.295 430.725 756.178 430.4V430.362Z" fill="#FFBF9B"/>
<path d="M652.432 427.702C648.164 431.675 643.686 435.414 639.016 438.902C658.636 451.594 671.691 470.41 679.427 493.576C688.129 482.216 693.568 474.518 693.568 474.518C693.568 474.518 733.977 503.446 738.329 503.526C742.721 503.608 764.195 488.982 777.449 479.797C788.169 472.342 784.179 462.432 776.563 459.25C774.739 458.499 772.771 458.168 770.803 458.282C760.083 458.966 747.998 473.229 742.68 469.162C738.947 466.355 735.553 463.125 732.568 459.533C728.939 454.944 725.868 449.941 723.422 444.626C720.937 439.214 717.68 434.194 713.753 429.718C710.192 426.002 706.073 422.861 701.545 420.411C696.348 409.936 693.164 402.846 688.692 398.574C684.664 394.707 690.385 385.24 684.987 371.018C679.547 356.795 660.369 356.715 662.948 371.178C665.526 385.682 655.656 423.472 652.432 427.702Z" fill="#FFBF9B"/>
<path d="M770.602 442.328C772.012 434.189 765.888 428.589 756.178 430.402C754.295 430.723 752.456 431.264 750.698 432.013C737.927 437.331 729.098 442.413 723.423 444.624C725.869 449.938 728.94 454.942 732.568 459.531C740.384 456.792 755.608 441.763 769.111 442.251C769.634 442.24 770.119 442.288 770.602 442.328Z" fill="#FFBF9B"/>
<path d="M685.015 421.749C684.771 421.749 684.536 421.661 684.352 421.502C684.168 421.342 684.048 421.122 684.015 420.88C683.981 420.64 684.035 420.395 684.168 420.19C684.301 419.987 684.504 419.838 684.738 419.771C691.867 417.734 696.482 417.669 701.765 419.538C702.016 419.627 702.223 419.813 702.338 420.053C702.453 420.294 702.467 420.571 702.378 420.822C702.288 421.074 702.103 421.28 701.863 421.395C701.621 421.51 701.344 421.525 701.093 421.435C696.995 419.995 692.923 419.528 685.291 421.709C685.202 421.734 685.107 421.749 685.015 421.749Z" fill="#29263B"/>
<path d="M723.422 445.632C723.187 445.63 722.962 445.549 722.781 445.398C722.602 445.25 722.478 445.042 722.435 444.811C722.392 444.581 722.43 444.342 722.544 444.138C722.656 443.931 722.838 443.773 723.056 443.686C725.498 442.726 728.496 441.262 732.285 439.4C737.098 437.034 743.088 434.091 750.31 431.08C752.139 430.299 754.054 429.738 756.016 429.405C756.274 429.374 756.534 429.445 756.742 429.6C756.95 429.757 757.09 429.989 757.131 430.245C757.173 430.502 757.114 430.766 756.965 430.979C756.816 431.194 756.59 431.342 756.336 431.394C754.53 431.701 752.766 432.219 751.083 432.939C743.917 435.925 737.963 438.851 733.163 441.203C729.323 443.088 726.299 444.576 723.779 445.56C723.666 445.605 723.544 445.63 723.422 445.632Z" fill="#29263B"/>
<path d="M732.568 460.539C732.33 460.539 732.101 460.454 731.92 460.301C731.738 460.147 731.618 459.934 731.578 459.701C731.538 459.466 731.581 459.226 731.703 459.021C731.823 458.816 732.012 458.659 732.236 458.581C735.728 456.997 739.045 455.05 742.13 452.771C750.042 447.491 759.925 440.866 769.146 441.24C769.652 441.219 770.159 441.246 770.66 441.322C770.927 441.344 771.175 441.47 771.351 441.674C771.525 441.877 771.613 442.142 771.594 442.41C771.584 442.541 771.549 442.669 771.49 442.787C771.431 442.904 771.349 443.01 771.248 443.094C771.149 443.181 771.032 443.246 770.908 443.286C770.783 443.326 770.65 443.342 770.519 443.331C770.039 443.293 769.597 443.254 769.111 443.254C760.484 442.976 750.92 449.323 743.25 454.454C740.029 456.835 736.559 458.859 732.901 460.49C732.794 460.525 732.68 460.541 732.568 460.539Z" fill="#29263B"/>
<path d="M744.96 470.906C743.92 470.925 742.906 470.592 742.08 469.96C738.283 467.109 734.834 463.822 731.8 460.17C728.123 455.523 725.013 450.456 722.533 445.075C720.09 439.75 716.888 434.808 713.027 430.403C712.845 430.208 712.749 429.949 712.758 429.682C712.766 429.414 712.882 429.162 713.077 428.979C713.274 428.798 713.533 428.701 713.8 428.71C714.067 428.72 714.318 428.835 714.501 429.03C718.466 433.53 721.754 438.584 724.261 444.032C726.694 449.326 729.747 454.314 733.354 458.89C736.29 462.422 739.629 465.602 743.302 468.36C745.542 470.072 750.122 467.203 754.968 464.165C759.862 461.096 765.41 457.618 770.747 457.277C772.869 457.155 774.989 457.51 776.955 458.317C777.202 458.418 777.4 458.613 777.502 458.859C777.606 459.106 777.606 459.382 777.506 459.63C777.405 459.877 777.21 460.074 776.963 460.178C776.717 460.282 776.438 460.282 776.192 460.181C774.507 459.49 772.69 459.184 770.872 459.288C766.046 459.597 760.73 462.93 756.038 465.87C751.8 468.523 748 470.906 744.96 470.906Z" fill="#29263B"/>
<path d="M249.44 500.853C249.285 500.851 249.131 500.814 248.992 500.744C248.853 500.674 248.733 500.573 248.64 500.448L233.235 479.795C233.088 479.581 233.029 479.317 233.072 479.061C233.114 478.803 233.254 478.573 233.464 478.418C233.672 478.261 233.933 478.192 234.192 478.224C234.45 478.258 234.685 478.389 234.85 478.59L250.253 499.243C250.363 499.392 250.432 499.57 250.448 499.755C250.464 499.941 250.429 500.126 250.347 500.293C250.264 500.461 250.136 500.6 249.979 500.699C249.821 500.798 249.638 500.851 249.453 500.853H249.44Z" fill="#29263B"/>
<path d="M585.083 490.994C584.933 490.994 584.784 490.958 584.649 490.894C584.513 490.829 584.394 490.734 584.299 490.618C584.205 490.501 584.137 490.363 584.102 490.218C584.069 490.07 584.065 489.918 584.097 489.771L586.702 477.771C586.763 477.514 586.921 477.29 587.145 477.149C587.369 477.008 587.64 476.96 587.897 477.016C588.157 477.074 588.382 477.229 588.528 477.45C588.672 477.672 588.725 477.941 588.672 478.2L586.067 490.2C586.017 490.424 585.894 490.626 585.715 490.77C585.536 490.914 585.313 490.994 585.083 490.994Z" fill="#29263B"/>
<g filter="url(#filter0_b_163_31)">
<rect width="800" height="800" transform="translate(1)" fill="#E0E0E0" fill-opacity="0.6"/>
</g>
<path d="M544 247L255 552M255.001 247L327.25 323.25M544 552L399.5 399.5" stroke="#526459" stroke-width="30" stroke-linecap="round" stroke-linejoin="round"/>
</g>
<defs>
<filter id="filter0_b_163_31" x="-44" y="-45" width="890" height="890" filterUnits="userSpaceOnUse" color-interpolation-filters="sRGB">
<feFlood flood-opacity="0" result="BackgroundImageFix"/>
<feGaussianBlur in="BackgroundImageFix" stdDeviation="22.5"/>
<feComposite in2="SourceAlpha" operator="in" result="effect1_backgroundBlur_163_31"/>
<feBlend mode="normal" in="SourceGraphic" in2="effect1_backgroundBlur_163_31" result="shape"/>
</filter>
<clipPath id="clip0_163_31">
<rect width="800" height="800" fill="white"/>
</clipPath>
</defs>
</svg>
